<svg width="12" height="20" viewBox="0 0 12 20" fill="none" xmlns="http://www.w3.org/2000/svg">
<path d="M7.30994 0.0363083C6.10693 0.212252 5.26316 0.595417 4.56976 1.27964C3.98496 1.8583 3.62155 2.5347 3.41688 3.42224C3.33751 3.75849 3.32916 3.9618 3.31245 5.54138L3.29574 7.29299H1.64578H0V9.07197V10.851L1.6416 10.8588L3.27903 10.8705L3.29156 15.4333L3.29992 20H5.26316H7.2264V15.4255V10.851H8.85547C9.75355 10.851 10.4845 10.847 10.4845 10.8392C10.5973 10.1276 10.9691 7.34382 10.9566 7.32036C10.9482 7.30472 10.1044 7.29299 9.08104 7.29299H7.22222L7.23475 5.83461C7.24728 4.41143 7.25146 4.37624 7.34754 4.14947C7.54386 3.69202 7.95322 3.41833 8.57143 3.34404C8.73851 3.32449 9.37761 3.30494 9.99582 3.30494H11.1111L11.1028 1.70972L11.0902 0.118416L10.5472 0.071497C9.65748 -0.00279045 7.72765 -0.0262489 7.30994 0.0363083Z" fill="white"/>
</svg>
