<svg width="35" height="21" viewBox="0 0 35 21" fill="none" xmlns="http://www.w3.org/2000/svg">
<path d="M11.842 3.58691C13.3963 3.70647 16.6483 4.87815 17.2222 8.60839" stroke="#C49D7E"/>
<path d="M22.9612 3.58691C21.4069 3.70647 18.1549 4.87815 17.581 8.60839" stroke="#C49D7E"/>
<g filter="url(#filter0_d_8_1941)">
<path d="M17.8848 11.614C20.2759 8.50547 25.9909 4.36873 29.7211 12.69C24.5562 0.63843 19.6782 6.95118 17.8848 11.614Z" fill="#C49D7E"/>
<path d="M17.8848 11.614C20.2759 8.50547 25.9909 4.36873 29.7211 12.69C24.5562 0.63843 19.6782 6.95118 17.8848 11.614Z" stroke="#C49D7E"/>
</g>
<g filter="url(#filter1_d_8_1941)">
<path d="M16.8088 11.614C14.4177 8.50547 8.70273 4.36873 4.97249 12.69C10.1374 0.63843 15.0155 6.95118 16.8088 11.614Z" fill="#C49D7E"/>
<path d="M16.8088 11.614C14.4177 8.50547 8.70273 4.36873 4.97249 12.69C10.1374 0.63843 15.0155 6.95118 16.8088 11.614Z" stroke="#C49D7E"/>
</g>
<path d="M6.7241 9.62352C5.69234 10.394 3.32365 11.3481 2.10303 9.0011" stroke="#C49D7E"/>
<path d="M28.0115 9.62352C29.0433 10.394 31.4119 11.3481 32.6326 9.0011" stroke="#C49D7E"/>
<ellipse cx="17.2223" cy="1.79339" rx="1.07603" ry="1.79339" fill="#C49D7E"/>
<defs>
<filter id="filter0_d_8_1941" x="13.4182" y="5.23853" width="20.7625" height="15.656" filterUnits="userSpaceOnUse" color-interpolation-filters="sRGB">
<feFlood flood-opacity="0" result="BackgroundImageFix"/>
<feColorMatrix in="SourceAlpha" type="matrix" values="0 0 0 0 0 0 0 0 0 0 0 0 0 0 0 0 0 0 127 0" result="hardAlpha"/>
<feOffset dy="4"/>
<feGaussianBlur stdDeviation="2"/>
<feComposite in2="hardAlpha" operator="out"/>
<feColorMatrix type="matrix" values="0 0 0 0 0 0 0 0 0 0 0 0 0 0 0 0 0 0 0.25 0"/>
<feBlend mode="normal" in2="BackgroundImageFix" result="effect1_dropShadow_8_1941"/>
<feBlend mode="normal" in="SourceGraphic" in2="effect1_dropShadow_8_1941" result="shape"/>
</filter>
<filter id="filter1_d_8_1941" x="0.512939" y="5.23853" width="20.7625" height="15.656" filterUnits="userSpaceOnUse" color-interpolation-filters="sRGB">
<feFlood flood-opacity="0" result="BackgroundImageFix"/>
<feColorMatrix in="SourceAlpha" type="matrix" values="0 0 0 0 0 0 0 0 0 0 0 0 0 0 0 0 0 0 127 0" result="hardAlpha"/>
<feOffset dy="4"/>
<feGaussianBlur stdDeviation="2"/>
<feComposite in2="hardAlpha" operator="out"/>
<feColorMatrix type="matrix" values="0 0 0 0 0 0 0 0 0 0 0 0 0 0 0 0 0 0 0.25 0"/>
<feBlend mode="normal" in2="BackgroundImageFix" result="effect1_dropShadow_8_1941"/>
<feBlend mode="normal" in="SourceGraphic" in2="effect1_dropShadow_8_1941" result="shape"/>
</filter>
</defs>
</svg>
