<svg width="11" height="17" viewBox="0 0 11 17" fill="none" xmlns="http://www.w3.org/2000/svg">
<path d="M5.38124 15.9219C3.15864 15.9219 1.10157 15.3398 1.10157 11.1178C1.10157 6.45838 4.34709 2.43782 5.38165 1.27495C6.41663 2.43657 9.66091 6.4511 9.66091 11.1178C9.66091 15.3398 7.60404 15.9219 5.38124 15.9219ZM5.38124 -3.8147e-06L5.06889 0.312544C4.87071 0.510515 0.217773 5.23125 0.217773 11.1178C0.217773 16.2159 3.16446 16.8057 5.38124 16.8057C7.59801 16.8057 10.5447 16.2159 10.5447 11.1178C10.5447 5.23125 5.89176 0.510515 5.69358 0.312544L5.38124 -3.8147e-06Z" fill="white" fill-opacity="0.6"/>
<path d="M3.57715 7.01751C3.57715 10.3015 4.60277 12.3186 5.46307 13.4324L6.16241 12.8924C5.38613 11.8873 4.46095 10.0524 4.46095 7.01751H3.57715Z" fill="white" fill-opacity="0.6"/>
<path d="M2.2832 11.7278C2.65918 13.1016 3.2506 14.2794 4.0402 15.2285L4.71958 14.6633C4.01088 13.8117 3.4781 12.7456 3.13561 11.4945L2.2832 11.7278Z" fill="white" fill-opacity="0.6"/>
<path d="M2.79905 9.76791L1.92212 9.87854C1.96974 10.2549 2.03191 10.6301 2.10698 10.9934L2.97248 10.8139C2.90178 10.4733 2.84335 10.1214 2.79905 9.76791Z" fill="white" fill-opacity="0.6"/>
</svg>
