<svg width="13" height="17" viewBox="0 0 13 17" fill="none" xmlns="http://www.w3.org/2000/svg">
<path d="M11.568 5.88731H0.926738C1.08695 4.78259 1.92019 2.02727 6.24873 2.02727C10.5551 2.02727 11.4017 4.78154 11.568 5.88731ZM6.25061 15.9055C5.68235 15.7886 1.25468 14.6165 1.87794 6.77619H10.6199C11.2518 14.66 6.86195 15.7878 6.25061 15.9055ZM5.80429 -3.8147e-06V1.15031C0.0709013 1.39209 0 6.28114 0 6.33175V6.77619H0.986766C0.640207 11.3515 1.95387 13.8069 3.15626 15.0727C4.56634 16.5572 6.12199 16.7879 6.18766 16.7971L6.24873 16.8057L6.3098 16.7971C6.37568 16.7879 7.93112 16.5572 9.34119 15.0727C10.5436 13.8069 11.8575 11.3517 11.5105 6.77619H12.4975V6.33175C12.4975 6.28114 12.4266 1.39209 6.69317 1.15031V-3.8147e-06H5.80429Z" fill="white" fill-opacity="0.6"/>
<path d="M4.45796 13.3983L5.16697 12.8623C4.56086 12.0604 4.11601 11.0714 3.84432 9.9225L2.97949 10.1271C3.27962 11.3968 3.77697 12.4973 4.45796 13.3983Z" fill="white" fill-opacity="0.6"/>
<path d="M10.0282 4.65974L9.02743 4.32573L8.74634 5.16902L9.74691 5.50302L10.0282 4.65974Z" fill="white" fill-opacity="0.6"/>
<path d="M8.27573 3.17455L7.38727 3.1553L7.36426 4.21004L8.25272 4.22949L8.27573 3.17455Z" fill="white" fill-opacity="0.6"/>
<path d="M5.04492 4.63915L6.03942 4.99219L6.33662 4.15454L5.34233 3.8015L5.04492 4.63915Z" fill="white" fill-opacity="0.6"/>
<path d="M2.50098 3.97619L3.03786 4.68457L3.87884 4.04709L3.34218 3.3387L2.50098 3.97619Z" fill="white" fill-opacity="0.6"/>
</svg>
