<svg width="21" height="21" viewBox="0 0 21 21" fill="none" xmlns="http://www.w3.org/2000/svg">
<path d="M7.13987 0.911934C5.84733 0.966669 4.96214 1.13088 4.21404 1.45148C3.51294 1.75253 3.09776 2.03012 2.58075 2.54229C1.88356 3.23431 1.4488 4.01234 1.17463 5.05624C0.931788 5.97894 0.876953 7.03847 0.876953 10.8817C0.876953 14.6624 0.927871 15.7337 1.15504 16.6564C1.71906 18.9514 3.40327 20.4136 5.88258 20.7538C6.59152 20.8476 8.07989 20.8906 10.9235 20.8906C13.5673 20.8906 15.0909 20.8515 15.7763 20.7694C17.1785 20.6052 18.2752 20.1204 19.1408 19.2915C20.1161 18.3532 20.6331 17.2311 20.8211 15.632C20.8956 15.0065 20.8956 6.66314 20.8211 6.07277C20.6684 4.87639 20.312 3.89114 19.7479 3.13657C19.4699 2.76123 18.8745 2.19432 18.5024 1.94019C17.6603 1.37328 16.6459 1.0605 15.3102 0.947121C14.6796 0.896296 8.20914 0.868927 7.13987 0.911934ZM15.6118 2.80033C16.7281 2.96454 17.3548 3.24213 17.958 3.84032C18.3497 4.23129 18.5651 4.57535 18.757 5.10707C19.0782 6.0063 19.1095 6.48329 19.1095 10.9013C19.1095 13.4465 19.0938 14.6703 19.0586 15.0808C18.945 16.4374 18.6748 17.1686 18.0402 17.8449C17.3783 18.5487 16.5519 18.8967 15.2711 19.014C14.5778 19.0804 8.84758 19.1117 7.52763 19.057C6.93228 19.0335 6.30951 18.9944 6.14109 18.971C5.40082 18.8693 4.68405 18.6073 4.23754 18.2828C3.95945 18.0756 3.51294 17.5908 3.34843 17.3171C3.01943 16.7698 2.82359 15.9996 2.757 15.0221C2.6395 13.2471 2.67867 7.15576 2.81184 6.14705C2.95284 5.10316 3.27793 4.39941 3.89287 3.80513C4.56655 3.15221 5.45174 2.83552 6.82261 2.7495C7.12028 2.73387 9.12175 2.72214 11.276 2.72996C14.617 2.73778 15.2554 2.74559 15.6118 2.80033Z" fill="white"/>
<path d="M15.7293 4.46944C15.2867 4.69229 15.0752 5.03635 15.0752 5.54461C15.0752 5.91213 15.1614 6.13107 15.412 6.38129C15.6627 6.62761 15.882 6.71753 16.2502 6.71753C16.5126 6.71753 16.5988 6.70189 16.7868 6.60806C17.1824 6.41257 17.4057 6.07242 17.437 5.6189C17.4644 5.2162 17.3743 4.98161 17.0962 4.70011C16.8377 4.44207 16.6106 4.35215 16.2306 4.35215C16.0191 4.35215 15.9251 4.3756 15.7293 4.46944Z" fill="white"/>
<path d="M9.98594 5.8223C8.95583 6.00997 8.04322 6.49087 7.27553 7.26108C6.25717 8.2737 5.76758 9.45835 5.76758 10.8815C5.76758 11.7416 5.92817 12.4493 6.28459 13.1609C7.38129 15.3347 9.79402 16.4489 12.1402 15.8664C13.0645 15.6357 13.7774 15.2369 14.4706 14.5684C15.0934 13.9663 15.5125 13.3094 15.7749 12.5236C15.9629 11.9567 16.0334 11.5188 16.0334 10.8815C16.0334 10.2481 15.9629 9.80631 15.7788 9.25113C15.5282 8.50046 15.1639 7.90619 14.596 7.31973C13.8205 6.52214 12.853 6.00606 11.7877 5.81839C11.3529 5.74411 10.4089 5.74411 9.98594 5.8223ZM11.537 7.61296C13.3309 7.95701 14.5216 9.71639 14.1769 11.5188C13.9654 12.6096 13.1624 13.5792 12.1362 13.9741C11.6349 14.1696 11.3451 14.2165 10.7654 14.193C10.3541 14.1774 10.1935 14.1539 9.92327 14.0679C8.73649 13.6926 7.87088 12.7347 7.62804 11.5305C7.53404 11.0652 7.56929 10.3419 7.7103 9.90406C8.07847 8.73896 9.06158 7.85145 10.2327 7.61687C10.5813 7.54649 11.1845 7.54649 11.537 7.61296Z" fill="white"/>
</svg>
