<svg width="17" height="17" viewBox="0 0 17 17" fill="none" xmlns="http://www.w3.org/2000/svg">
<path d="M1.09651 12.1321C1.29886 11.1218 1.92512 10.0319 2.81525 9.14205C3.74647 8.21083 4.68057 7.77731 5.58391 7.3582C6.42141 6.96961 7.21228 6.60241 7.92266 5.89228C8.73011 5.08458 9.23573 4.28553 9.682 3.58069C10.0307 3.03013 10.3316 2.55478 10.7086 2.17772C11.4327 1.45365 12.4216 1.02133 13.354 1.02133C13.8327 1.02133 14.5239 1.14125 15.0949 1.71224C16.3056 2.92343 15.7966 4.93221 14.6306 6.0987C13.9786 6.75068 13.4412 7.07294 12.8722 7.41443C12.275 7.77274 11.6569 8.1433 10.9148 8.88491C10.2047 9.59552 9.83773 10.3864 9.44938 11.2239C9.03027 12.1272 8.59698 13.0611 7.66576 13.9926C6.54325 15.1144 5.15639 15.7844 3.95626 15.7844C3.15505 15.7841 2.45861 15.4941 1.88594 14.9214C0.958082 13.9938 0.944634 12.8926 1.09651 12.1321ZM3.95626 16.8057H3.9565C5.44308 16.8057 7.05848 16.0434 8.3879 14.7147C9.44697 13.6554 9.94034 12.592 10.3755 11.6538C10.7403 10.868 11.0552 10.1893 11.6372 9.60705C12.2901 8.95436 12.8282 8.63186 13.3975 8.29013C13.9947 7.93206 14.6118 7.56174 15.353 6.82109C16.8662 5.30687 17.4735 2.64706 15.817 0.990333C15.1691 0.342443 14.3177 -3.8147e-06 13.354 -3.8147e-06C12.1565 -3.8147e-06 10.8978 0.544058 9.98672 1.45533C9.52916 1.91265 9.18431 2.45745 8.81927 3.03421C8.3807 3.72679 7.92771 4.44245 7.20051 5.17012C6.61799 5.75241 5.93982 6.06722 5.15399 6.43154C4.2158 6.86723 3.1524 7.36059 2.09309 8.4199C1.04892 9.46359 0.339523 10.7111 0.0951227 11.9319C-0.193015 13.3728 0.176343 14.6563 1.1638 15.6438C1.92415 16.4039 2.88974 16.8055 3.95626 16.8057Z" fill="white" fill-opacity="0.6"/>
</svg>
