<svg width="18" height="20" viewBox="0 0 18 20" fill="none" xmlns="http://www.w3.org/2000/svg">
<path d="M15.008 4.27729C14.8745 4.20752 14.7446 4.13104 14.6187 4.04813C14.2525 3.80333 13.9167 3.51489 13.6186 3.18901C12.8728 2.32613 12.5943 1.45076 12.4917 0.837875H12.4958C12.4101 0.32915 12.4455 0 12.4509 0H9.05396V13.2818C9.05396 13.4602 9.05396 13.6364 9.04654 13.8106C9.04654 13.8322 9.04448 13.8522 9.04325 13.8756C9.04325 13.8851 9.04325 13.8951 9.04119 13.9051C9.04119 13.9076 9.04119 13.9101 9.04119 13.9126C9.00538 14.3892 8.8543 14.8495 8.60125 15.2532C8.34819 15.6568 8.00091 15.9914 7.58996 16.2275C7.16165 16.4739 6.67723 16.6031 6.18446 16.6025C4.60179 16.6025 3.31909 15.2976 3.31909 13.686C3.31909 12.0744 4.60179 10.7695 6.18446 10.7695C6.48406 10.7692 6.7818 10.8169 7.06666 10.9107L7.07078 7.41338C6.20604 7.30043 5.32754 7.36992 4.49069 7.61747C3.65384 7.86501 2.87681 8.28524 2.20862 8.85164C1.62313 9.36603 1.1309 9.97979 0.754093 10.6653C0.6107 10.9153 0.0696821 11.9198 0.00416657 13.5502C-0.0370382 14.4755 0.237797 15.4342 0.368828 15.8305V15.8388C0.451238 16.0721 0.770574 16.8683 1.29099 17.5395C1.71063 18.078 2.20643 18.5509 2.76241 18.9432V18.9349L2.77065 18.9432C4.41513 20.0732 6.23844 19.999 6.23844 19.999C6.55407 19.9861 7.61138 19.999 8.81209 19.4236C10.1438 18.7857 10.902 17.8354 10.902 17.8354C11.3863 17.2675 11.7715 16.6204 12.0409 15.9217C12.3483 15.1047 12.4509 14.1247 12.4509 13.7331V6.68675C12.4921 6.71175 13.0409 7.07881 13.0409 7.07881C13.0409 7.07881 13.8316 7.59129 15.0653 7.92502C15.9504 8.16251 17.1429 8.21251 17.1429 8.21251V4.80268C16.725 4.84851 15.8766 4.71518 15.008 4.27729Z" fill="white"/>
</svg>
